<svg width="43" height="64" viewBox="0 0 43 64" fill="none" xmlns="http://www.w3.org/2000/svg">
<path d="M10.665 63.33C16.5521 63.33 21.33 58.5521 21.33 52.665V42H10.665C4.77792 42 0 46.7779 0 52.665C0 58.5521 4.77792 63.33 10.665 63.33Z" fill="#D18C02"/>
<path d="M0 31.665C0 25.7779 4.77792 21 10.665 21H21.33V42.33H10.665C4.77792 42.33 0 37.5521 0 31.665Z" fill="#FEC346"/>
<path d="M0 10.665C0 4.77792 4.77792 0 10.665 0H21.33V21.33H10.665C4.77792 21.33 0 16.5521 0 10.665Z" fill="#FDB623"/>
<path d="M21 0H31.665C37.5521 0 42.33 4.77792 42.33 10.665C42.33 16.5521 37.5521 21.33 31.665 21.33H21V0Z" fill="#D18C02"/>
<path d="M42.33 31.665C42.33 37.5521 37.5521 42.33 31.665 42.33C25.7779 42.33 21 37.5521 21 31.665C21 25.7779 25.7779 21 31.665 21C37.5521 21 42.33 25.7779 42.33 31.665Z" fill="#FDB623"/>
</svg>
