<svg width="200" height="200" viewBox="0 0 200 200" fill="none" xmlns="http://www.w3.org/2000/svg">
<g clip-path="url(#clip0_4_557)">
<path d="M0 6.25C0 4.5924 0.65848 3.00269 1.83058 1.83058C3.00269 0.65848 4.5924 0 6.25 0L43.75 0C45.4076 0 46.9973 0.65848 48.1694 1.83058C49.3415 3.00269 50 4.5924 50 6.25C50 7.9076 49.3415 9.49732 48.1694 10.6694C46.9973 11.8415 45.4076 12.5 43.75 12.5H33.5C21.902 12.5 12.5 21.902 12.5 33.5V43.75C12.5 45.4076 11.8415 46.9973 10.6694 48.1694C9.49732 49.3415 7.9076 50 6.25 50C4.5924 50 3.00269 49.3415 1.83058 48.1694C0.65848 46.9973 0 45.4076 0 43.75V6.25ZM150 6.25C150 4.5924 150.658 3.00269 151.831 1.83058C153.003 0.65848 154.592 0 156.25 0L193.75 0C195.408 0 196.997 0.65848 198.169 1.83058C199.342 3.00269 200 4.5924 200 6.25V43.75C200 45.4076 199.342 46.9973 198.169 48.1694C196.997 49.3415 195.408 50 193.75 50C192.092 50 190.503 49.3415 189.331 48.1694C188.158 46.9973 187.5 45.4076 187.5 43.75V33.5C187.5 21.902 178.098 12.5 166.5 12.5H156.25C154.592 12.5 153.003 11.8415 151.831 10.6694C150.658 9.49732 150 7.9076 150 6.25ZM6.25 150C7.9076 150 9.49732 150.658 10.6694 151.831C11.8415 153.003 12.5 154.592 12.5 156.25V166.5C12.5 178.098 21.902 187.5 33.5 187.5H43.75C45.4076 187.5 46.9973 188.158 48.1694 189.331C49.3415 190.503 50 192.092 50 193.75C50 195.408 49.3415 196.997 48.1694 198.169C46.9973 199.342 45.4076 200 43.75 200H6.25C4.5924 200 3.00269 199.342 1.83058 198.169C0.65848 196.997 0 195.408 0 193.75V156.25C0 154.592 0.65848 153.003 1.83058 151.831C3.00269 150.658 4.5924 150 6.25 150ZM193.75 150C195.408 150 196.997 150.658 198.169 151.831C199.342 153.003 200 154.592 200 156.25V193.75C200 195.408 199.342 196.997 198.169 198.169C196.997 199.342 195.408 200 193.75 200H156.25C154.592 200 153.003 199.342 151.831 198.169C150.658 196.997 150 195.408 150 193.75C150 192.092 150.658 190.503 151.831 189.331C153.003 188.158 154.592 187.5 156.25 187.5H166.5C178.098 187.5 187.5 178.098 187.5 166.5V156.25C187.5 154.592 188.158 153.003 189.331 151.831C190.503 150.658 192.092 150 193.75 150Z" fill="#FDB623"/>
<g clip-path="url(#clip1_4_557)">
<path d="M175 25H25V175H175V25Z" fill="white"/>
<path fill-rule="evenodd" clip-rule="evenodd" d="M25 25H61.2061V61.2061H25V25ZM30.1723 30.1723V56.0338H56.0338V30.1723H30.1723Z" fill="black"/>
<path fill-rule="evenodd" clip-rule="evenodd" d="M35.3446 35.3445H50.8615V50.8614H35.3446V35.3445Z" fill="black"/>
<path fill-rule="evenodd" clip-rule="evenodd" d="M174.997 25V61.2061L138.791 61.2061V25L174.997 25ZM169.824 30.1723L143.963 30.1723V56.0338L169.824 56.0338V30.1723Z" fill="black"/>
<path fill-rule="evenodd" clip-rule="evenodd" d="M164.652 35.3445V50.8614H149.135V35.3445H164.652Z" fill="black"/>
<path fill-rule="evenodd" clip-rule="evenodd" d="M25 174.997L25 138.79H61.2061L61.2061 174.997H25ZM30.1723 169.824H56.0338L56.0338 143.963H30.1723L30.1723 169.824Z" fill="black"/>
<path fill-rule="evenodd" clip-rule="evenodd" d="M35.3446 164.652L35.3446 149.135H50.8615L50.8615 164.652H35.3446Z" fill="black"/>
<path fill-rule="evenodd" clip-rule="evenodd" d="M66.3784 25V45.6892H71.5507V50.8615H66.3784V61.2061H71.5507V56.0338H76.723V71.5507H81.8953V66.3784H87.0676V71.5507H92.2399V76.723H107.757V87.0676H118.101V81.8953H123.274V97.4122H118.101V102.585H112.929V112.929H118.101V123.274H112.929V128.446H107.757V133.618H128.446V143.963H123.274V138.791H118.101V143.963H112.929V138.791H92.2399V133.618H102.585V123.274H107.757V118.101H102.585V112.929H97.4122V102.585H107.757V97.4122H92.2399V92.2399H102.585V81.8953H97.4122V87.0676H92.2399V81.8953H87.0676V87.0676H81.8953V92.2399H76.723V97.4122H71.5507V92.2399H66.3784V87.0676H76.723V81.8953H81.8953V76.723H66.3784V71.5507H61.2061V66.3784H45.6892V71.5507H35.3446V66.3784H25V71.5507H30.1723V76.723H25V81.8953H30.1723V92.2399H25V102.585H30.1723V112.929H25V118.101H30.1723V112.929H35.3446V107.757H40.5169V102.585H35.3446V97.4122H45.6892V107.757H50.8615V118.101H45.6892V112.929H40.5169V123.274H50.8615V118.101H56.0338V123.274H61.2061V128.446H50.8615V133.618H66.3784V138.791H71.5507V143.963H66.3784V154.308H71.5507V159.48H76.723V154.308H81.8953V149.135H87.0676V154.308H92.2399V159.48H107.757V169.824H112.929V154.308H97.4122V143.963H112.929V149.135H118.101V143.963H123.274V149.135H128.446V154.308H123.274V159.48H118.101V164.652H123.274V159.48H128.446V154.308H143.963V159.48H138.791V174.997H143.963V169.824H149.135V174.997H154.308V169.824H164.652V174.997H169.824V169.824H164.652V164.652H174.997V159.48H169.824V154.308H174.997V149.135H169.824V143.963H174.997V138.791H169.824V143.963H164.652V133.618H154.308V128.446H138.791V123.274H143.963V112.929H149.135V123.274H164.652V128.446H169.824V123.274H174.997V118.101H169.824V97.4122H164.652V92.2399H169.824V87.0676H159.48V81.8953H164.652V71.5507H174.997V66.3784H154.308V71.5507H159.48V76.723H149.135V66.3784H143.963V76.723H138.791V71.5507H133.618V76.723H128.446V66.3784H133.618V56.0338H128.446V50.8615H133.618V25H118.101V30.1723H112.929V25H107.757V30.1723H102.585V25H92.2399V30.1723H81.8953V35.3446H87.0676V50.8615H92.2399V35.3446H97.4122V40.5169H102.585V35.3446H107.757V30.1723H112.929V35.3446H123.274V40.5169H118.101V50.8615H112.929V56.0338H107.757V61.2061H102.585V56.0338H97.4122V61.2061H92.2399V56.0338H87.0676V61.2061H81.8953V40.5169H76.723V35.3446H71.5507V25H66.3784ZM123.274 30.1723V35.3446H128.446V30.1723H123.274ZM107.757 40.5169V45.6892H112.929V40.5169H107.757ZM123.274 40.5169V50.8615H118.101V56.0338H112.929V61.2061H118.101V56.0338H123.274V61.2061H128.446V56.0338H123.274V50.8615H128.446V40.5169H123.274ZM87.0676 61.2061V66.3784H92.2399V61.2061H87.0676ZM97.4122 61.2061V71.5507H107.757V66.3784H102.585V61.2061H97.4122ZM118.101 66.3784V71.5507H112.929V81.8953H118.101V71.5507H123.274V66.3784H118.101ZM50.8615 71.5507V76.723H45.6892V81.8953H40.5169V76.723H35.3446V81.8953H40.5169V87.0676H35.3446V92.2399H30.1723V97.4122H35.3446V92.2399H40.5169V87.0676H45.6892V92.2399H50.8615V97.4122H61.2061V102.585H56.0338V107.757H61.2061V102.585H66.3784V107.757H71.5507V97.4122H66.3784V92.2399H56.0338V87.0676H66.3784V76.723H61.2061V71.5507H50.8615ZM56.0338 76.723V81.8953H61.2061V76.723H56.0338ZM123.274 76.723V81.8953H128.446V76.723H123.274ZM133.618 76.723V92.2399H128.446V102.585H138.791V107.757H133.618V112.929H143.963V107.757H164.652V102.585H149.135V92.2399H154.308V97.4122H159.48V92.2399H154.308V81.8953H149.135V87.0676H143.963V81.8953H138.791V76.723H133.618ZM169.824 76.723V81.8953H174.997V76.723H169.824ZM87.0676 87.0676V92.2399H81.8953V97.4122H76.723V107.757H81.8953V118.101H71.5507V112.929H56.0338V118.101H71.5507V123.274H76.723V128.446H87.0676V133.618H81.8953V138.791H76.723V143.963H71.5507V149.135H76.723V143.963H81.8953V138.791H87.0676V133.618H92.2399V128.446H97.4122V123.274H102.585V118.101H92.2399V112.929H87.0676V107.757H92.2399V102.585H87.0676V107.757H81.8953V97.4122H87.0676V92.2399H92.2399V87.0676H87.0676ZM133.618 92.2399V97.4122H138.791V102.585H143.963V92.2399H133.618ZM123.274 112.929V123.274H118.101V128.446H123.274V123.274H138.791V118.101H128.446V112.929H123.274ZM154.308 112.929V118.101H159.48V112.929H154.308ZM87.0676 123.274V128.446H92.2399V123.274H87.0676ZM25 128.446V133.618H45.6892V128.446H25ZM66.3784 128.446V133.618H71.5507V128.446H66.3784ZM133.618 133.618V149.135H149.135V133.618H133.618ZM138.791 138.791V143.963H143.963V138.791H138.791ZM87.0676 143.963V149.135H92.2399V143.963H87.0676ZM154.308 143.963V149.135H159.48V154.308H169.824V149.135H159.48V143.963H154.308ZM149.135 154.308V159.48H143.963V164.652H149.135V159.48H154.308V164.652H159.48V159.48H154.308V154.308H149.135ZM66.3784 164.652V174.997H71.5507V169.824H76.723V164.652H66.3784ZM87.0676 164.652V169.824H81.8953V174.997H87.0676V169.824H92.2399V174.997H102.585V164.652H97.4122V169.824H92.2399V164.652H87.0676ZM128.446 164.652V169.824H133.618V164.652H128.446Z" fill="black"/>
</g>
</g>
<defs>
<clipPath id="clip0_4_557">
<rect width="200" height="200" fill="white"/>
</clipPath>
<clipPath id="clip1_4_557">
<rect width="150" height="150" fill="white" transform="translate(25 25)"/>
</clipPath>
</defs>
</svg>
